<svg width="150" height="100" viewBox="0 0 150 100" fill="none" xmlns="http://www.w3.org/2000/svg">
<g clip-path="url(#clip0_414_327)">
<mask id="path-1-inside-1_414_327" fill="white">
<path fill-rule="evenodd" clip-rule="evenodd" d="M46.3496 24.5696V7.19919H42.3633V24.5696H46.3496ZM42.3633 28.6876V98.5318H46.3496V28.6876H42.3633ZM123.679 58.0598H112.248C111.209 49.7466 110.543 40.8528 110.279 31.7344C116.09 33.7042 120.605 44.0917 123.679 58.0598ZM128.194 89.3996H131.989C131.412 92.9802 130.788 96.2042 130.116 99.0703C129.395 96.2042 128.77 92.9802 128.194 89.3996ZM125.888 70.2377C125.936 70.4172 125.936 70.775 125.985 70.9533H114.361C113.881 68.6257 113.449 66.1186 113.064 63.6103H124.784C125.216 65.7596 125.552 67.9089 125.888 70.2377ZM125.888 89.3996H127.762C127.952 92.5742 128.049 95.8171 128.05 99.0703C127.33 98.8908 126.609 98.5318 125.888 98.174C123.823 96.7426 121.758 93.697 119.837 89.3996H125.888ZM134.294 63.6103C134.39 64.3271 134.342 65.0439 134.294 65.7596C134.246 67.5499 134.15 69.1619 134.006 70.9533H126.176L125.888 65.7596C125.888 65.0439 125.84 64.3271 125.792 63.6103H134.294ZM134.294 42.4797C134.534 47.8518 134.63 53.0444 134.534 58.0598H125.648C125.552 52.1493 125.6 46.0615 125.888 40.1521C126.417 28.5104 127.713 16.8699 129.971 6.12454C132.421 18.1217 133.766 30.4791 134.294 42.4797ZM134.294 76.5049H144.668C143.996 79.1916 143.324 81.6987 142.603 83.8468H117.723C116.955 81.6987 116.234 79.1916 115.562 76.5049H134.294ZM134.294 89.3996H140.394C138.473 93.8765 136.407 96.7426 134.294 98.174C133.574 98.533 132.853 98.8908 132.132 99.0703C132.181 95.8295 132.277 92.601 132.421 89.3996H134.294ZM146.878 65.5812C146.59 67.3727 146.254 69.1619 145.918 70.9533H134.294C134.246 70.775 134.294 70.4172 134.294 70.2377C134.645 67.9892 135.013 65.7791 135.399 63.6103H147.214C147.118 64.1488 146.974 64.8656 146.878 65.5812ZM146.878 11.6761C148.127 11.6761 149.184 15.2579 149.184 20.2722C149.184 25.107 148.127 28.6876 146.878 28.6876C145.629 28.6876 144.573 25.107 144.573 20.2722C144.573 15.2568 145.629 11.6761 146.878 11.6761ZM146.878 27.2563C147.935 27.2563 148.751 24.3901 148.751 20.2722C148.751 16.1519 147.935 13.1086 146.878 13.1086C145.821 13.1086 145.005 16.1519 145.005 20.2722C145.005 24.2118 145.821 27.2563 146.878 27.2563ZM146.878 19.5554C147.214 19.5554 147.551 19.5554 147.551 17.9434C147.551 16.8687 147.214 16.5098 146.974 16.5098H146.398V19.5554H146.878ZM146.878 20.9879L146.398 20.8095V25.107H146.014V15.2568H147.022C147.647 15.2568 147.935 16.1519 147.935 18.1217C147.935 19.9132 147.647 20.63 147.262 20.8084L148.031 25.1058H147.55L146.878 20.9879ZM146.878 33.7042C147.887 32.8079 148.895 32.0922 150 31.7344C149.664 41.5845 148.991 50.3601 147.983 58.0598H136.504C139.001 46.776 142.507 37.6438 146.878 33.7042ZM57.5893 29.2261C59.6544 29.2261 61.5753 31.7332 63.1127 36.0318V7.19919H67.1472V98.5318H63.1127V92.2645C61.5756 96.562 59.6544 99.0703 57.5893 99.0703C52.4498 99.0703 48.2712 83.489 48.2712 64.1476C48.2712 44.8062 52.4498 29.2261 57.5893 29.2261ZM57.5893 84.5648C60.6147 84.5648 63.1127 75.4303 63.1127 64.1488C63.1127 52.8661 60.6147 43.7327 57.5893 43.7327C54.5633 43.7327 52.1134 52.8661 52.1134 64.1488C52.1131 75.4291 54.563 84.5648 57.5893 84.5648ZM78.4823 29.2261C80.5476 29.2261 82.4205 31.7332 84.0054 36.0318V29.4056H87.992V98.533H84.0054V92.2657C82.4202 96.5632 80.5476 99.0714 78.4823 99.0714C73.2949 99.0714 69.1163 83.4902 69.1163 64.1488C69.1166 44.8062 73.2952 29.2261 78.4823 29.2261ZM78.4823 84.5648C81.5083 84.5648 83.9575 75.4303 83.9575 64.1488C83.9575 52.8661 81.508 43.7327 78.4823 43.7327C75.4081 43.7327 72.9588 52.8661 72.9588 64.1488C72.9588 75.4291 75.4081 84.5648 78.4823 84.5648ZM101.585 32.45C103.554 36.3896 104.803 43.0159 104.851 51.4324H100.768C100.528 45.8808 99.3274 41.5834 97.358 41.5834C96.3014 41.5834 94.0919 43.0159 94.0919 48.0313C94.0919 55.5515 97.4542 56.0889 98.3186 56.2684C99.6156 56.6274 100.72 57.5214 101.584 58.7755C104.418 62.3573 105.331 69.5197 105.331 77.5796C105.331 85.2793 104.274 91.0116 102.785 95.1307C102.449 96.0258 102.065 96.7426 101.584 97.4572C100.24 99.2498 98.463 99.9654 97.2617 99.9654C93.6595 99.9654 90.0571 92.8019 89.5766 76.3266H93.6117C93.8034 84.0263 95.965 87.0719 97.2139 87.0719C99.4712 87.0719 101.008 83.4902 101.008 79.1916C101.008 72.7448 99.3749 71.3112 97.0216 70.4172C95.6768 69.8787 93.1791 68.2667 92.0746 64.8656C90.9699 61.4621 89.9611 57.5214 89.9611 50.7156C89.9611 38.5378 92.4591 29.0466 97.4539 28.8682C98.991 28.8682 100.432 30.1212 101.585 32.45ZM29.9232 29.2261C31.9882 29.2261 33.9095 31.7332 35.4466 36.0318V7.19919H39.4814V98.5318H35.4466V92.2645C33.9098 96.562 31.9882 99.0703 29.9232 99.0703C24.7358 99.0703 20.5572 83.489 20.5572 64.1476C20.5572 44.8062 24.7358 29.2261 29.9232 29.2261ZM29.9232 84.5648C32.9489 84.5648 35.3987 75.4303 35.3987 64.1488C35.3987 52.8661 32.9492 43.7327 29.9232 43.7327C26.8971 43.7327 24.4476 52.8661 24.4476 64.1488C24.4479 75.4291 26.8971 84.5648 29.9232 84.5648ZM9.31781 84.5648C12.392 84.5648 14.8412 75.4303 14.8412 64.1488C14.8412 52.8661 12.392 43.7327 9.31781 43.7327C6.29211 43.7327 3.84223 52.8661 3.84223 64.1488C3.84223 75.4291 6.29242 84.5648 9.31781 84.5648ZM14.8415 29.4056H18.8763V98.533H14.8415V92.2657C13.3048 96.5632 11.3835 99.0714 9.31812 99.0714C4.1789 99.0703 0 83.489 0 64.1488C0 44.8062 4.1789 29.2261 9.31781 29.2261C11.3832 29.2261 13.3045 31.7332 14.8412 36.0318L14.8415 29.4056ZM101.585 21.3468C99.9998 21.3468 98.7031 16.8687 98.7031 10.6003C98.7031 4.51142 99.9998 0.0333252 101.585 0.0333252C103.17 0.0333252 104.515 4.51142 104.515 10.6003C104.515 16.8687 103.17 21.3468 101.585 21.3468ZM101.585 1.82594C100.288 1.82594 99.2792 5.58722 99.2792 10.6003C99.2792 15.7952 100.288 19.5554 101.585 19.5554C102.881 19.5554 103.938 15.7952 103.938 10.6003C103.938 5.58722 102.882 1.82594 101.585 1.82594ZM101.585 9.88582C102.017 9.88582 102.401 9.70633 102.401 7.91486C102.401 6.30288 102.017 6.12454 101.681 6.12454H101.008V9.88582H101.585ZM101.585 11.6761L101.009 11.4978V16.8687H100.48V4.51257H101.729C102.546 4.51257 102.93 5.58837 102.93 8.09435C102.93 10.2425 102.546 11.1388 102.065 11.3183L103.026 16.8699H102.45L101.585 11.6761Z"/>
</mask>
<path fill-rule="evenodd" clip-rule="evenodd" d="M46.3496 24.5696V7.19919H42.3633V24.5696H46.3496ZM42.3633 28.6876V98.5318H46.3496V28.6876H42.3633ZM123.679 58.0598H112.248C111.209 49.7466 110.543 40.8528 110.279 31.7344C116.09 33.7042 120.605 44.0917 123.679 58.0598ZM128.194 89.3996H131.989C131.412 92.9802 130.788 96.2042 130.116 99.0703C129.395 96.2042 128.77 92.9802 128.194 89.3996ZM125.888 70.2377C125.936 70.4172 125.936 70.775 125.985 70.9533H114.361C113.881 68.6257 113.449 66.1186 113.064 63.6103H124.784C125.216 65.7596 125.552 67.9089 125.888 70.2377ZM125.888 89.3996H127.762C127.952 92.5742 128.049 95.8171 128.05 99.0703C127.33 98.8908 126.609 98.5318 125.888 98.174C123.823 96.7426 121.758 93.697 119.837 89.3996H125.888ZM134.294 63.6103C134.39 64.3271 134.342 65.0439 134.294 65.7596C134.246 67.5499 134.15 69.1619 134.006 70.9533H126.176L125.888 65.7596C125.888 65.0439 125.84 64.3271 125.792 63.6103H134.294ZM134.294 42.4797C134.534 47.8518 134.63 53.0444 134.534 58.0598H125.648C125.552 52.1493 125.6 46.0615 125.888 40.1521C126.417 28.5104 127.713 16.8699 129.971 6.12454C132.421 18.1217 133.766 30.4791 134.294 42.4797ZM134.294 76.5049H144.668C143.996 79.1916 143.324 81.6987 142.603 83.8468H117.723C116.955 81.6987 116.234 79.1916 115.562 76.5049H134.294ZM134.294 89.3996H140.394C138.473 93.8765 136.407 96.7426 134.294 98.174C133.574 98.533 132.853 98.8908 132.132 99.0703C132.181 95.8295 132.277 92.601 132.421 89.3996H134.294ZM146.878 65.5812C146.59 67.3727 146.254 69.1619 145.918 70.9533H134.294C134.246 70.775 134.294 70.4172 134.294 70.2377C134.645 67.9892 135.013 65.7791 135.399 63.6103H147.214C147.118 64.1488 146.974 64.8656 146.878 65.5812ZM146.878 11.6761C148.127 11.6761 149.184 15.2579 149.184 20.2722C149.184 25.107 148.127 28.6876 146.878 28.6876C145.629 28.6876 144.573 25.107 144.573 20.2722C144.573 15.2568 145.629 11.6761 146.878 11.6761ZM146.878 27.2563C147.935 27.2563 148.751 24.3901 148.751 20.2722C148.751 16.1519 147.935 13.1086 146.878 13.1086C145.821 13.1086 145.005 16.1519 145.005 20.2722C145.005 24.2118 145.821 27.2563 146.878 27.2563ZM146.878 19.5554C147.214 19.5554 147.551 19.5554 147.551 17.9434C147.551 16.8687 147.214 16.5098 146.974 16.5098H146.398V19.5554H146.878ZM146.878 20.9879L146.398 20.8095V25.107H146.014V15.2568H147.022C147.647 15.2568 147.935 16.1519 147.935 18.1217C147.935 19.9132 147.647 20.63 147.262 20.8084L148.031 25.1058H147.55L146.878 20.9879ZM146.878 33.7042C147.887 32.8079 148.895 32.0922 150 31.7344C149.664 41.5845 148.991 50.3601 147.983 58.0598H136.504C139.001 46.776 142.507 37.6438 146.878 33.7042ZM57.5893 29.2261C59.6544 29.2261 61.5753 31.7332 63.1127 36.0318V7.19919H67.1472V98.5318H63.1127V92.2645C61.5756 96.562 59.6544 99.0703 57.5893 99.0703C52.4498 99.0703 48.2712 83.489 48.2712 64.1476C48.2712 44.8062 52.4498 29.2261 57.5893 29.2261ZM57.5893 84.5648C60.6147 84.5648 63.1127 75.4303 63.1127 64.1488C63.1127 52.8661 60.6147 43.7327 57.5893 43.7327C54.5633 43.7327 52.1134 52.8661 52.1134 64.1488C52.1131 75.4291 54.563 84.5648 57.5893 84.5648ZM78.4823 29.2261C80.5476 29.2261 82.4205 31.7332 84.0054 36.0318V29.4056H87.992V98.533H84.0054V92.2657C82.4202 96.5632 80.5476 99.0714 78.4823 99.0714C73.2949 99.0714 69.1163 83.4902 69.1163 64.1488C69.1166 44.8062 73.2952 29.2261 78.4823 29.2261ZM78.4823 84.5648C81.5083 84.5648 83.9575 75.4303 83.9575 64.1488C83.9575 52.8661 81.508 43.7327 78.4823 43.7327C75.4081 43.7327 72.9588 52.8661 72.9588 64.1488C72.9588 75.4291 75.4081 84.5648 78.4823 84.5648ZM101.585 32.45C103.554 36.3896 104.803 43.0159 104.851 51.4324H100.768C100.528 45.8808 99.3274 41.5834 97.358 41.5834C96.3014 41.5834 94.0919 43.0159 94.0919 48.0313C94.0919 55.5515 97.4542 56.0889 98.3186 56.2684C99.6156 56.6274 100.72 57.5214 101.584 58.7755C104.418 62.3573 105.331 69.5197 105.331 77.5796C105.331 85.2793 104.274 91.0116 102.785 95.1307C102.449 96.0258 102.065 96.7426 101.584 97.4572C100.24 99.2498 98.463 99.9654 97.2617 99.9654C93.6595 99.9654 90.0571 92.8019 89.5766 76.3266H93.6117C93.8034 84.0263 95.965 87.0719 97.2139 87.0719C99.4712 87.0719 101.008 83.4902 101.008 79.1916C101.008 72.7448 99.3749 71.3112 97.0216 70.4172C95.6768 69.8787 93.1791 68.2667 92.0746 64.8656C90.9699 61.4621 89.9611 57.5214 89.9611 50.7156C89.9611 38.5378 92.4591 29.0466 97.4539 28.8682C98.991 28.8682 100.432 30.1212 101.585 32.45ZM29.9232 29.2261C31.9882 29.2261 33.9095 31.7332 35.4466 36.0318V7.19919H39.4814V98.5318H35.4466V92.2645C33.9098 96.562 31.9882 99.0703 29.9232 99.0703C24.7358 99.0703 20.5572 83.489 20.5572 64.1476C20.5572 44.8062 24.7358 29.2261 29.9232 29.2261ZM29.9232 84.5648C32.9489 84.5648 35.3987 75.4303 35.3987 64.1488C35.3987 52.8661 32.9492 43.7327 29.9232 43.7327C26.8971 43.7327 24.4476 52.8661 24.4476 64.1488C24.4479 75.4291 26.8971 84.5648 29.9232 84.5648ZM9.31781 84.5648C12.392 84.5648 14.8412 75.4303 14.8412 64.1488C14.8412 52.8661 12.392 43.7327 9.31781 43.7327C6.29211 43.7327 3.84223 52.8661 3.84223 64.1488C3.84223 75.4291 6.29242 84.5648 9.31781 84.5648ZM14.8415 29.4056H18.8763V98.533H14.8415V92.2657C13.3048 96.5632 11.3835 99.0714 9.31812 99.0714C4.1789 99.0703 0 83.489 0 64.1488C0 44.8062 4.1789 29.2261 9.31781 29.2261C11.3832 29.2261 13.3045 31.7332 14.8412 36.0318L14.8415 29.4056ZM101.585 21.3468C99.9998 21.3468 98.7031 16.8687 98.7031 10.6003C98.7031 4.51142 99.9998 0.0333252 101.585 0.0333252C103.17 0.0333252 104.515 4.51142 104.515 10.6003C104.515 16.8687 103.17 21.3468 101.585 21.3468ZM101.585 1.82594C100.288 1.82594 99.2792 5.58722 99.2792 10.6003C99.2792 15.7952 100.288 19.5554 101.585 19.5554C102.881 19.5554 103.938 15.7952 103.938 10.6003C103.938 5.58722 102.882 1.82594 101.585 1.82594ZM101.585 9.88582C102.017 9.88582 102.401 9.70633 102.401 7.91486C102.401 6.30288 102.017 6.12454 101.681 6.12454H101.008V9.88582H101.585ZM101.585 11.6761L101.009 11.4978V16.8687H100.48V4.51257H101.729C102.546 4.51257 102.93 5.58837 102.93 8.09435C102.93 10.2425 102.546 11.1388 102.065 11.3183L103.026 16.8699H102.45L101.585 11.6761Z" fill="white" stroke="white" stroke-opacity="0.33" stroke-width="2" mask="url(#path-1-inside-1_414_327)"/>
</g>
<defs>
<clipPath id="clip0_414_327">
<rect width="150" height="100" fill="white"/>
</clipPath>
</defs>
</svg>
