<svg width="1280" height="720" viewBox="0 0 1280 720" fill="none" xmlns="http://www.w3.org/2000/svg">
<path d="M360.5 788C360.5 955.609 223.732 1091.5 55 1091.5C-113.732 1091.5 -250.5 955.609 -250.5 788C-250.5 620.391 -113.732 484.5 55 484.5C223.732 484.5 360.5 620.391 360.5 788Z" fill="#F27405" stroke="white" stroke-width="3"/>
<ellipse cx="55" cy="788" rx="243" ry="241" fill="#F24405" fill-opacity="0.32"/>
<ellipse cx="55" cy="788" rx="186" ry="185" fill="#F27405"/>
<path d="M806.051 141.129C700.174 154.033 628.157 52.4194 605.384 0L1280 3.52823V727.32H1204.65C971.347 689.013 1010.62 536.291 1059.42 464.719C1087.92 414.483 1139.45 293.448 1117.59 211.19C1090.26 108.367 938.397 125 806.051 141.129Z" fill="url(#paint0_linear_168_12)" stroke="white" stroke-width="2"/>
<path d="M885.667 78.1293C779.79 91.0325 707.773 -10.5806 685 -63L1359.62 -59.4718V664.32H1284.27C1050.96 626.013 1090.24 473.291 1139.04 401.719C1167.54 351.483 1219.07 230.448 1197.21 148.19C1169.88 45.3671 1018.01 62.0002 885.667 78.1293Z" fill="#A3E141"/>
<defs>
<linearGradient id="paint0_linear_168_12" x1="942.692" y1="0" x2="942.692" y2="727.32" gradientUnits="userSpaceOnUse">
<stop offset="0.223266" stop-color="#A3E141"/>
<stop offset="0.6674" stop-color="#286400"/>
<stop offset="0.868648" stop-color="#0A2606"/>
</linearGradient>
</defs>
</svg>
