<svg width="70" height="70" viewBox="0 0 70 70" fill="none" xmlns="http://www.w3.org/2000/svg">
<path d="M43.2337 34.1483C43.386 34.2316 43.5125 34.355 43.5994 34.5052C43.6863 34.6554 43.7303 34.8265 43.7267 35C43.7355 35.148 43.7082 35.2959 43.6473 35.431C43.5863 35.5662 43.4934 35.6845 43.3767 35.7758L27.7083 43.6158C27.5591 43.6983 27.391 43.7405 27.2205 43.7384C27.05 43.7362 26.8831 43.6898 26.736 43.6036C26.5889 43.5174 26.4667 43.3944 26.3815 43.2467C26.2963 43.099 26.251 42.9317 26.25 42.7613V27.2388C26.2467 27.0657 26.2906 26.895 26.3769 26.745C26.4632 26.5949 26.5887 26.4712 26.74 26.3871C26.8792 26.3068 27.0372 26.2645 27.1979 26.2646C27.4331 26.2715 27.6624 26.3399 27.8629 26.4629L43.2337 34.1483ZM70 14.5833V55.4167C69.9954 59.283 68.4574 62.9896 65.7235 65.7235C62.9896 68.4574 59.283 69.9954 55.4167 70H14.5833C10.717 69.9954 7.01038 68.4574 4.27647 65.7235C1.54257 62.9896 0.00463125 59.283 0 55.4167L0 14.5833C0.00463125 10.717 1.54257 7.01038 4.27647 4.27647C7.01038 1.54257 10.717 0.00463125 14.5833 0L55.4167 0C59.283 0.00463125 62.9896 1.54257 65.7235 4.27647C68.4574 7.01038 69.9954 10.717 70 14.5833ZM49.56 35C49.561 33.7711 49.2291 32.5649 48.5995 31.5095C47.9699 30.4541 47.0661 29.5891 45.9842 29.0063L30.59 21.3208C29.5531 20.7259 28.378 20.4142 27.1826 20.4169C25.9872 20.4196 24.8135 20.7366 23.7793 21.3361C22.7451 21.9356 21.8868 22.7966 21.2904 23.8327C20.6941 24.8687 20.3807 26.0433 20.3817 27.2388V42.7613C20.3747 43.9564 20.6853 45.132 21.2818 46.1678C21.8784 47.2035 22.7393 48.0621 23.7767 48.6558C24.8267 49.2689 26.02 49.5938 27.2358 49.5979C28.3607 49.603 29.4671 49.3123 30.4442 48.755L46.1242 40.9179C47.1726 40.3275 48.044 39.4675 48.6481 38.4269C49.2522 37.3864 49.5671 36.2032 49.56 35Z" fill="#DADADA"/>
</svg>
