<svg width="23" height="22" viewBox="0 0 23 22" fill="none" xmlns="http://www.w3.org/2000/svg">
<path d="M17.895 10.2734H4.94497C3.92324 10.2734 3.09497 11.0713 3.09497 12.0555V18.2929C3.09497 19.2771 3.92324 20.075 4.94497 20.075H17.895C18.9167 20.075 19.745 19.2771 19.745 18.2929V12.0555C19.745 11.0713 18.9167 10.2734 17.895 10.2734Z" stroke="white" stroke-linecap="round" stroke-linejoin="round"/>
<path d="M6.79517 10.2736V6.70942C6.79517 5.52781 7.28244 4.39459 8.1498 3.55907C9.01715 2.72354 10.1935 2.25415 11.4202 2.25415C12.6468 2.25415 13.8232 2.72354 14.6905 3.55907C15.5579 4.39459 16.0452 5.52781 16.0452 6.70942V10.2736" stroke="white" stroke-linecap="round" stroke-linejoin="round"/>
</svg>
