<?xml version="1.0" encoding="utf-8"?>
<svg xmlns="http://www.w3.org/2000/svg" viewBox="0 0 500 320">
  <g id="Capa_2" data-name="Capa 2" transform="matrix(0.883119, 0, 0, 1.04206, 9.84262, 144.787)" style="">
    <g id="Capa_1_Imagen" data-name="Capa 1 Imagen">
      <path class="cls-1" d="M527.52,127.68c-.63,0-1.27-.11-1.9-.11H128.21a19.57,19.57,0,0,1-2-.08c-2.62-.28-3.66-1.65-3.26-4.24.31-2,.61-2.25,2.64-2.25H525.72c.6,0,1.2,0,1.8,0Z" style="fill: rgb(198, 217, 156);"/>
      <path class="cls-1" d="M37.2,160.32c-1.93-.42-3.9-.74-5.8-1.27-9.41-2.62-14.81-9.26-15.52-19a2,2,0,0,1,.07-.44c.68.14,1.34.25,2,.4,9.24,2.15,16.93-1,22.12-9a33.48,33.48,0,0,1,4.75-6.13c5.61-5.34,13.3-5.83,20.38-1.77A25.18,25.18,0,0,0,72,125.94c5.74,1.27,10.65-.77,14.72-4.79,2-2,3.62-4.26,5.53-6.3,7.7-8.16,19.53-7.56,27.44.37a3.81,3.81,0,0,1,.94,3.56c-.24,1.44-.5,2.89-.78,4.46l-3.41-2.8a18.32,18.32,0,0,0-9.12-4.26,13.34,13.34,0,0,0-11.39,3.87A49.77,49.77,0,0,0,91,125.77c-3.18,4.09-7.06,7-12.33,7.79a21.3,21.3,0,0,1-8.55-.66l-1.56-.43c-.35,2.51-.52,5-1,7.39-1.91,8.94-7.64,14.64-15.86,18a67.37,67.37,0,0,1-8.28,2.26c-.23.06-.45.14-.67.21Zm-10.15-12.2c3.82,5,8.81,7.29,14.89,6.78,8.18-.69,14.25-5,18.63-11.78A19.11,19.11,0,0,0,63.71,132c0-1.11-.16-2.17-1.31-2.76a14.48,14.48,0,0,0-10.78-1.39c-4.1,1.13-6.76,3.9-8.44,7.73-2.62,6-6.87,10.22-13.35,11.91C29,147.7,28.06,147.89,27.05,148.12Z" style="fill: rgb(163, 191, 101);"/>
      <path class="cls-1" d="M0,73.68c.4-1.78.76-3.57,1.21-5.33.26-1,.66-1.94,1.12-3.24.4,1,.71,1.69.93,2.4,2.27,7.3,7.46,11,14.81,12.17,4.81.74,9.56.09,14.31-.6A26.14,26.14,0,0,1,43,79.39c5.36,1.41,8.65,4.77,9.73,10.21A21.82,21.82,0,0,1,52.44,100c-1.92,6.53-7.68,10.71-14.75,10.85a28.36,28.36,0,0,1-14.6-3.6C16.16,103.41,10,98.59,5.33,92A28.61,28.61,0,0,1,.21,78.52,2.1,2.1,0,0,0,0,78ZM21.9,86.92h1.86a6.94,6.94,0,0,1,6.54,3.67c.57,1,1.18,2,1.82,3a8.87,8.87,0,0,0,4.45,3.85c3.37,1.14,7.64-.71,9.72-4.2a5.89,5.89,0,0,0-.41-7.14,13.84,13.84,0,0,0-7-4.55C32.74,79.63,25.47,81.88,21.9,86.92Z" style="fill: rgb(163, 191, 101);"/>
      <path class="cls-1" d="M49,0a15.07,15.07,0,0,0,8.39,9.51c5.26,2.29,7.29,6.18,6.91,11.6a34.77,34.77,0,0,1-1,6.61,12.43,12.43,0,0,1-8.88,9.08c-4.56,1.38-9,1.52-13.39-.71-5.48-2.8-7.74-7.47-7.49-13.37a23.13,23.13,0,0,1,1.52-6.84,12,12,0,0,1,6.64-7,11.91,11.91,0,0,0,7-8.83ZM38.43,19.62a38.17,38.17,0,0,0-.74,5.07A11.05,11.05,0,0,0,40.47,33a2.78,2.78,0,0,0,3.37.75,5.77,5.77,0,0,0,3.76-4.87c.2-2.27-1-3.85-2.82-5C42.71,22.49,40.68,21.11,38.43,19.62Z" style="fill: rgb(163, 191, 101);"/>
      <path class="cls-1" d="M151.37,57.87c12.33-.22,23.2,7.89,26.86,20.19,3.15,10.55-.09,20.69-8.78,27.49-11.08,8.68-26.93,8.78-37.56.16-5.67-4.59-8.56-10.72-9.49-17.84-1.85-14.23,7.74-26.58,22.44-29.28C147,58.19,149.19,58.1,151.37,57.87Zm-10,19.45A41.22,41.22,0,0,0,146,94.13a13,13,0,0,0,4.54,5.61,5.76,5.76,0,0,0,8-1.61,7.77,7.77,0,0,0,1.49-4.72,39,39,0,0,0-4.86-18.57A12.09,12.09,0,0,0,150.56,70a5.53,5.53,0,0,0-7.56,1.5A8.4,8.4,0,0,0,141.34,77.32Z" style="fill: rgb(242, 131, 34);"/>
      <path class="cls-1" d="M35.46,76.15C22,76,11.41,66.88,9.36,53.51c-.81-5.24-.91-10.42.94-15.5a23.64,23.64,0,0,1,4.63-7.64c1.62-1.82,2.37-1.72,3.23.53A20.66,20.66,0,0,0,25,40.26,9.72,9.72,0,0,0,32.9,42.2a22.2,22.2,0,0,1,10.52.87,12.3,12.3,0,0,1,8.69,9.09A27.16,27.16,0,0,1,53,63.67C52,69.73,47.91,74,41.61,75.31,39.6,75.74,37.51,75.88,35.46,76.15ZM26,61.76c0,.36,0,.56,0,.75a10.82,10.82,0,0,0,12.43,9.2,4.44,4.44,0,0,0,3.68-2.88c.73-2,.92-4-.47-5.69s-3.18-1.85-5.12-1.55c-.9.14-1.8.36-2.68.58C31.19,62.85,28.61,63.09,26,61.76Z" style="fill: rgb(163, 191, 101);"/>
      <path class="cls-1" d="M276.36,72.83a20.42,20.42,0,0,1,17.17,9.79c4.87,7.81,3.33,17.07-3.71,23s-15.19,7.62-24,5.63-14.07-9.11-13.84-18.32c.19-7.53,3.9-12.8,10.17-16.53C266.08,74.05,270.37,72.82,276.36,72.83Zm2.55,25a32.76,32.76,0,0,0-1.68-9.88,28.41,28.41,0,0,0-1.73-4.19A3,3,0,0,0,272.12,82a3.27,3.27,0,0,0-2.89,2.79,8.63,8.63,0,0,0-.08,3.2c.77,3.66,1.65,7.3,2.6,10.92a6.87,6.87,0,0,0,1.38,2.47,3.11,3.11,0,0,0,3.49.91,2.73,2.73,0,0,0,2.09-2.48C278.83,99,278.87,98.23,278.91,97.8Z" style="fill: rgb(242, 131, 34);"/>
      <path class="cls-1" d="M382.77,73c8.83,0,15.89,2.47,20.09,10,3.93,7.1,3.78,16.53-4.37,22.88-8,6.23-16.72,7.76-26.25,4.47-6.47-2.23-10.12-6.92-11-13.66-1.49-11.17,5.33-20.54,16.71-23C379.7,73.32,381.54,73.18,382.77,73ZM388,97.21c-.19-1.5-.35-3.25-.65-5a25.27,25.27,0,0,0-2.9-8.69A3,3,0,0,0,381.2,82a3.25,3.25,0,0,0-2.91,2.49,9.33,9.33,0,0,0-.2,2.84,43.25,43.25,0,0,0,2.56,11.28,10.68,10.68,0,0,0,1.37,2.64,3.21,3.21,0,0,0,3.77,1,2.87,2.87,0,0,0,2-2.79C387.91,98.82,387.93,98.14,388,97.21Z" style="fill: rgb(242, 131, 34);"/>
      <path class="cls-1" d="M312.67,112.21c-3.64-.54-7.11-1-10.57-1.59a6.73,6.73,0,0,1-1.89-.73c-2.13-1.07-3.13-5.1,0-6.39,2.85-1.2,3.59-3.37,3.69-6.1.06-1.52.26-3,.38-4.54a7.59,7.59,0,0,0,0-1.43c-.3-2.26-1.5-3.19-3.78-3a3.31,3.31,0,0,1-1.51-.11,1.52,1.52,0,0,1-.8-1c-.1-1.27-.05-2.54-.05-3.81a2.67,2.67,0,0,1,2.3-3c1.45-.41,1.66-.92,1.05-2.34a40.39,40.39,0,0,1-1.93-4.75,10.41,10.41,0,0,1,4.64-11.94,19.23,19.23,0,0,1,9.46-2.7c4-.24,7.93-.09,11.56,1.84A10,10,0,0,1,330.3,66,5.73,5.73,0,0,1,329,72.22a5.47,5.47,0,0,1-6.26,1.48,19,19,0,0,1-4.34-2.84c-1.14-.87-2.06-2-3.21-2.88a2.44,2.44,0,0,0-3.68.55,2.66,2.66,0,0,0,.4,3.76c1.94,1.73,3.87,3.47,5.86,5.13A9.85,9.85,0,0,0,325.85,80a1.8,1.8,0,0,1,2.25,2c0,1.36,0,2.72-.07,4.08a2.38,2.38,0,0,1-3,2.43c-3.05-.38-4.19.52-4.18,3.59,0,2,.24,4.06.45,6.09a4.94,4.94,0,0,0,3.92,4.57c2,.58,2.85,1.74,2.88,3.5a3.91,3.91,0,0,1-2.79,3.91,4.86,4.86,0,0,1-.92.27Z" style="fill: rgb(242, 131, 34);"/>
      <path class="cls-1" d="M102.23,61.54c.68,2.44,1.48,4.85,2,7.32a39,39,0,0,1-.67,21.06c-3.33,10-10.65,15.85-20.5,18.76a33.37,33.37,0,0,1-16.49.52c-5.6-1.17-8.76-4.49-9.77-10.12A24.78,24.78,0,0,1,58,86.33a12.54,12.54,0,0,1,13.41-8.48,72.78,72.78,0,0,0,9.07.57c6.09-.25,11.75-1.9,16.17-6.45a21.65,21.65,0,0,0,5.24-10.35ZM86.09,97.2c-.94,0-1.7,0-2.45,0a13.88,13.88,0,0,1-7.39-1.66c-1.2-.62-2.44-1.19-3.65-1.79a6.94,6.94,0,0,0-6.35-.12,7.77,7.77,0,0,0-4.54,6.58c-.24,2.11,1.2,4,3.8,5.14a16.09,16.09,0,0,0,14.75-.71A11.63,11.63,0,0,0,86.09,97.2Z" style="fill: rgb(163, 191, 101);"/>
      <path class="cls-1" d="M82.92,26.66c4.47,7,8.73,13.79,10.08,21.88,1.18,7.1.22,13.71-5.11,19C82,73.39,74.81,75.62,66.68,73.62,57.41,71.33,52.23,62,54.58,52.37c1.75-7.18,6.74-10.79,14.13-10.27a32.94,32.94,0,0,0,4.66,0,7.82,7.82,0,0,0,6.79-5,36.53,36.53,0,0,0,2.6-9.56C82.79,27.36,82.83,27.17,82.92,26.66Zm-19.83,26c.28.93.68,2.55,1.24,4.12.62,1.72,1.57,2.3,3,2.06a3,3,0,0,0,2.73-3.12c0-.6,0-1.2-.06-1.8-.12-2.52.87-3.93,3.38-4.42a28.93,28.93,0,0,1,4.17-.29c1,0,1.85-.15,2.14-1.3a2.1,2.1,0,0,0-1.07-2.56c-1.12-.55-2.44-1.26-3.58-1.14-3.08.34-6.2.81-8.94,2.46C64.21,47.8,63.19,49.58,63.09,52.61Z" style="fill: rgb(163, 191, 101);"/>
      <path class="cls-1" d="M475.16,93.88c-2.48,0-5-.07-7.43,0-.93,0-2.3.29-2.62.9s.22,1.89.69,2.69c2,3.39,6,4.8,10.4,3.61a27.7,27.7,0,0,0,4.61-2c1.09-.52,2.14-1.29,3.32-.4a3.81,3.81,0,0,1,1.72,4.06,7.57,7.57,0,0,1-1.91,3.36c-7.53,7.15-22.9,9.48-31.32-1.55-9.84-12.89-1.09-28.89,12.14-31.2,4.87-.85,9.67-.57,14.11,1.82a15.82,15.82,0,0,1,8.71,12.43c.51,4-1.36,6.13-5.34,6.18C479.88,93.91,477.52,93.88,475.16,93.88Zm-6.7-7.14v0a19.26,19.26,0,0,0,2.15,0c2.05-.21,2.9-1.47,2.43-3.48A4.48,4.48,0,0,0,468.59,80a4.75,4.75,0,0,0-4,4.64,1.94,1.94,0,0,0,2.11,2.09C467.26,86.77,467.86,86.74,468.46,86.74Z" style="fill: rgb(242, 131, 34);"/>
      <path class="cls-1" d="M237,93.88h-7.79c-1.92,0-2.56,1-1.73,2.81a9,9,0,0,0,10,4.7,28,28,0,0,0,5.62-2.25c1.16-.55,2.19-1.23,3.43-.32a3.93,3.93,0,0,1,1.56,4.12,8.54,8.54,0,0,1-1.63,2.88c-7,7.5-20.89,8.4-28.88,2a19.61,19.61,0,0,1-1.82-28c7.57-8.65,21.5-8.34,28.09-2.76,3.9,3.32,6.32,7.39,5.84,12.74-.24,2.65-1.55,3.95-4.27,4s-5.59,0-8.39,0Zm-6.28-7a16.73,16.73,0,0,0,2.78-.26,2.31,2.31,0,0,0,1.42-1.07,4,4,0,0,0-2.69-5.37,4.56,4.56,0,0,0-5.41,3.47c-.36,1.9.38,2.91,2.28,3.1C229.56,86.8,230,86.83,230.7,86.88Z" style="fill: rgb(242, 131, 34);"/>
      <path class="cls-1" d="M429,93.73c0,1.92-.09,3.84,0,5.75a3.87,3.87,0,0,0,3.12,3.64c2.45.72,3.25,1.7,3.18,3.81a3.91,3.91,0,0,1-3.57,3.88,51.36,51.36,0,0,1-20.48,0c-1.74-.38-3.3-1-3.93-2.91a3.46,3.46,0,0,1,1.56-4.27,6.44,6.44,0,0,0,2.91-5.7c.06-3.27.25-6.54.33-9.82.06-2.14-.75-3.95-2.8-4.73-2.3-.86-2.58-3.92-.22-5.43a23.6,23.6,0,0,1,8.2-3.53,85.94,85.94,0,0,1,8.78-1.1c1.95-.16,2.44.41,2.69,2.38a13,13,0,0,0,.31,2.25,1.58,1.58,0,0,0,.92.92c.3.08.82-.23,1.09-.51.75-.83,1.34-1.81,2.14-2.57,4-3.81,10-3.38,12.89.88,3.78,5.6,0,13.63-6.69,14.19a8.55,8.55,0,0,1-6.38-2.28c-.4-.33-.71-.82-1.16-1s-1.44-.71-1.9-.5a2.49,2.49,0,0,0-1.12,1.75c-.15,1.62-.05,3.27-.05,4.91Z" style="fill: rgb(242, 131, 34);"/>
      <path class="cls-1" d="M505.27,72.93c1.77.26,3.7.63,5.64.78a11.24,11.24,0,0,0,3.75-.29c2.54-.69,4.45-.28,5.81,2a41.21,41.21,0,0,1,3,6.34,3.17,3.17,0,0,1-1.15,3.86,3.79,3.79,0,0,1-4.38.48,30.93,30.93,0,0,1-3.51-2.67,33.45,33.45,0,0,0-3-2.33c-1.41-.86-2.56-.47-3.43,1s-.58,2.31.91,3.2c1.95,1.17,4,2.15,6,3.32a40.08,40.08,0,0,1,4.86,3.27c6.88,5.58,4.38,13.45-.53,17.12a15.39,15.39,0,0,1-10.61,3c-3-.22-6.05-.5-9.07-.71a14.45,14.45,0,0,0-2.63.06,3.27,3.27,0,0,1-3.07-1.25,14.22,14.22,0,0,1-3.7-9.74c0-1.1.08-2.2,1.29-2.72a3.24,3.24,0,0,1,3.78.59c1.5,1.44,2.88,3,4.45,4.37a11.11,11.11,0,0,0,3.23,1.91,2.35,2.35,0,0,0,2.9-1.5c.45-1,.17-1.85-1-2.61-1.57-1-3.26-1.86-4.81-2.91a34.44,34.44,0,0,1-5.05-3.81c-3.38-3.31-4.08-7.42-2.74-11.84a11.63,11.63,0,0,1,8.95-8.3C502.36,73.17,503.73,73.13,505.27,72.93Z" style="fill: rgb(242, 131, 34);"/>
      <path class="cls-1" d="M194.53,111.94c-1.94-.27-4.91-.63-7.86-1.11a4.54,4.54,0,0,1-3.55-2.37c-.8-1.57-.6-2.95,1-3.67,2.55-1.17,3.07-3.22,3.11-5.68.12-6.19.32-12.38.41-18.56a35,35,0,0,0-.39-4.78,7.57,7.57,0,0,0-3.13-5.18A7.67,7.67,0,0,1,181.89,68c-.77-1.58,0-3.47,2-4.45a36.54,36.54,0,0,1,7.52-3A84.36,84.36,0,0,1,201.84,59c2.27-.25,3.28.74,3.23,3.06-.08,3.31-.38,6.62-.45,9.93-.14,6.71-.18,13.42-.26,20.13,0,2.4,0,4.8-.08,7.19s.71,4.4,3.08,5.6c1.88,1,1.9,3.31.18,4.83-1.5,1.33-3.37,1.59-5.25,1.74C200.06,111.69,197.82,111.77,194.53,111.94Z" style="fill: rgb(242, 131, 34);"/>
      <path class="cls-1" d="M348.22,112.12c-3.76-.41-7.53-.76-11.27-1.28a5.57,5.57,0,0,1-2.64-1.3c-1.89-1.63-1.66-3.92.55-5.06a4.28,4.28,0,0,0,2.4-3.69,130.64,130.64,0,0,0,.5-21.3l-.12-3.23a6.55,6.55,0,0,0-2.46-5c-.24-.2-.49-.4-.75-.59-3.62-2.65-3.37-5.6.64-7.69a37.67,37.67,0,0,1,13.67-3.69c1.19-.13,2.39-.24,3.58-.28,2.13-.08,3.16.83,3.13,3,0,2.71-.19,5.42-.38,8.13a263.26,263.26,0,0,0-.33,30.9,3.43,3.43,0,0,0,2.06,3.37c1.22.51,2.22,1.22,2.16,2.69a3.46,3.46,0,0,1-2.45,3.48,40.73,40.73,0,0,1-5.15,1c-1,.15-2.07.13-3.11.19Z" style="fill: rgb(242, 131, 34);"/>
    </g>
  </g>
</svg>